# xmcd
#
# Track frame offsets:
#	150
#	17203
#	34454
#	51810
#	65523
#	79437
#	93809
#	105419
#	121596
#	140535
#
# Disc length: 2076 seconds
#
# Revision: 3
# Processed by: cddbd v1.5.2PL0 Copyright (c) Steve Scherf et al.
# Submitted via: audiograbber 1.83.01
#
DISCID=80081a0a
DTITLE=Yuri - Karma Kamaleon
DYEAR=1984
DGENRE=Latin
TTITLE0=Sombra De Ayer
TTITLE1=Perdona Amor
TTITLE2=Chao, Cariño, Chao (Ciao, Amore, Ciao)
TTITLE3=Tra-La-La
TTITLE4=Quiero Ser
TTITLE5=Deja A Un Lado Tu Timidez
TTITLE6=No Se Que Tienes Tu
TTITLE7=Que Sera (Ci Sara)
TTITLE8=Karma Kamaleon (Karma Chamaleon)
TTITLE9=Ni Tu, Ni Yo
EXTD=
EXTT0=
EXTT1=
EXTT2=
EXTT3=
EXTT4=
EXTT5=
EXTT6=
EXTT7=
EXTT8=
EXTT9=
PLAYORDER=
